<svg width="695" height="192" viewBox="0 0 695 192" fill="none" xmlns="http://www.w3.org/2000/svg">
<rect width="694.475" height="191.538" fill="white"/>
<circle cx="52.4007" cy="90.8398" r="6.98971" transform="rotate(20.0599 52.4007 90.8398)" fill="#2042FF"/>
<circle cx="101.148" cy="99.2488" r="11.2612" transform="rotate(20.0599 101.148 99.2488)" fill="#2042FF"/>
<circle cx="106.484" cy="56.0696" r="11.2612" transform="rotate(10.5223 106.484 56.0696)" fill="#2042FF"/>
<circle cx="89.7731" cy="143.939" r="12.4262" transform="rotate(20.0599 89.7731 143.939)" fill="#2042FF"/>
<circle cx="150.126" cy="108.156" r="15.1444" transform="rotate(20.0599 150.126 108.156)" fill="#2042FF"/>
<circle cx="155.413" cy="55.6645" r="15.1444" transform="rotate(10.5223 155.413 55.6645)" fill="#2042FF"/>
<circle cx="43.0835" cy="126.89" r="6.98971" transform="rotate(20.0599 43.0835 126.89)" fill="#2042FF"/>
<path d="M245.875 125.269C243.055 125.269 240.895 124.549 239.395 123.109C237.955 121.609 237.235 119.479 237.235 116.719V70.3689C237.235 67.6089 237.955 65.5089 239.395 64.0689C240.895 62.5689 243.055 61.8189 245.875 61.8189H267.835C272.395 61.8189 276.265 62.5089 279.445 63.8889C282.685 65.2089 285.145 67.0989 286.825 69.5589C288.505 72.0189 289.345 74.8989 289.345 78.1989C289.345 81.9189 288.265 85.0989 286.105 87.7389C284.005 90.3789 281.125 92.1789 277.465 93.1389V91.6989C281.785 92.4789 285.115 94.2189 287.455 96.9189C289.855 99.6189 291.055 103.069 291.055 107.269C291.055 112.849 289.045 117.259 285.025 120.499C281.065 123.679 275.635 125.269 268.735 125.269H245.875ZM253.075 113.119H266.485C269.545 113.119 271.765 112.549 273.145 111.409C274.585 110.209 275.305 108.439 275.305 106.099C275.305 103.759 274.585 102.019 273.145 100.879C271.765 99.7389 269.545 99.1689 266.485 99.1689H253.075V113.119ZM253.075 87.0189H264.865C267.865 87.0189 270.055 86.4789 271.435 85.3989C272.875 84.3189 273.595 82.6689 273.595 80.4489C273.595 78.2289 272.875 76.6089 271.435 75.5889C270.055 74.5089 267.865 73.9689 264.865 73.9689H253.075V87.0189ZM316.178 126.259C310.418 126.259 306.158 124.729 303.398 121.669C300.698 118.549 299.348 113.869 299.348 107.629V69.1089C299.348 66.4689 300.038 64.4589 301.418 63.0789C302.798 61.6989 304.748 61.0089 307.268 61.0089C309.848 61.0089 311.828 61.6989 313.208 63.0789C314.648 64.4589 315.368 66.4689 315.368 69.1089V107.089C315.368 109.309 315.788 110.929 316.628 111.949C317.528 112.969 318.668 113.479 320.048 113.479C320.468 113.479 320.888 113.449 321.308 113.389C321.788 113.269 322.298 113.179 322.838 113.119C323.858 113.119 324.608 113.509 325.088 114.289C325.628 115.069 325.898 116.659 325.898 119.059C325.898 121.159 325.478 122.749 324.638 123.829C323.798 124.849 322.508 125.509 320.768 125.809C320.288 125.869 319.598 125.959 318.698 126.079C317.798 126.199 316.958 126.259 316.178 126.259ZM347.197 126.259C343.357 126.259 340.207 125.569 337.747 124.189C335.287 122.749 333.427 120.619 332.167 117.799C330.967 114.979 330.367 111.409 330.367 107.089V88.1889C330.367 85.5489 331.057 83.5689 332.437 82.2489C333.817 80.8689 335.797 80.1789 338.377 80.1789C340.957 80.1789 342.937 80.8689 344.317 82.2489C345.697 83.5689 346.387 85.5489 346.387 88.1889V107.539C346.387 109.699 346.837 111.319 347.737 112.399C348.637 113.479 350.047 114.019 351.967 114.019C354.127 114.019 355.897 113.239 357.277 111.679C358.657 110.119 359.347 108.049 359.347 105.469V88.1889C359.347 85.5489 360.037 83.5689 361.417 82.2489C362.797 80.8689 364.777 80.1789 367.357 80.1789C369.937 80.1789 371.917 80.8689 373.297 82.2489C374.677 83.5689 375.367 85.5489 375.367 88.1889V117.979C375.367 123.379 372.787 126.079 367.627 126.079C365.107 126.079 363.157 125.389 361.777 124.009C360.397 122.629 359.707 120.619 359.707 117.979V112.759L361.147 117.169C359.827 120.109 357.967 122.359 355.567 123.919C353.227 125.479 350.437 126.259 347.197 126.259ZM408.81 126.259C403.41 126.259 398.73 125.329 394.77 123.469C390.87 121.549 387.87 118.849 385.77 115.369C383.67 111.889 382.62 107.779 382.62 103.039C382.62 98.4789 383.61 94.4889 385.59 91.0689C387.63 87.5889 390.39 84.8889 393.87 82.9689C397.41 80.9889 401.43 79.9989 405.93 79.9989C409.23 79.9989 412.23 80.5389 414.93 81.6189C417.63 82.6389 419.94 84.1689 421.86 86.2089C423.78 88.1889 425.22 90.5889 426.18 93.4089C427.2 96.2289 427.71 99.3789 427.71 102.859C427.71 104.059 427.38 104.959 426.72 105.559C426.06 106.099 425.01 106.369 423.57 106.369H396.03V98.8089H416.01L414.57 99.9789C414.57 97.7589 414.27 95.9589 413.67 94.5789C413.07 93.1989 412.17 92.1489 410.97 91.4289C409.83 90.7089 408.39 90.3489 406.65 90.3489C404.79 90.3489 403.17 90.7989 401.79 91.6989C400.47 92.5389 399.45 93.7989 398.73 95.4789C398.01 97.1589 397.65 99.2589 397.65 101.779V102.589C397.65 106.849 398.58 109.909 400.44 111.769C402.36 113.569 405.3 114.469 409.26 114.469C410.58 114.469 412.08 114.319 413.76 114.019C415.5 113.659 417.15 113.179 418.71 112.579C420.27 111.979 421.62 111.889 422.76 112.309C423.9 112.669 424.77 113.329 425.37 114.289C426.03 115.189 426.39 116.239 426.45 117.439C426.51 118.579 426.24 119.719 425.64 120.859C425.04 121.939 424.05 122.779 422.67 123.379C420.57 124.339 418.32 125.059 415.92 125.539C413.58 126.019 411.21 126.259 408.81 126.259ZM470.084 125.269C467.264 125.269 465.104 124.549 463.604 123.109C462.164 121.609 461.444 119.479 461.444 116.719V70.3689C461.444 67.6089 462.164 65.5089 463.604 64.0689C465.104 62.5689 467.264 61.8189 470.084 61.8189H487.724C498.764 61.8189 507.284 64.5789 513.284 70.0989C519.344 75.6189 522.374 83.4189 522.374 93.4989C522.374 98.5389 521.594 103.039 520.034 106.999C518.474 110.899 516.224 114.229 513.284 116.989C510.344 119.689 506.714 121.759 502.394 123.199C498.134 124.579 493.244 125.269 487.724 125.269H470.084ZM478.004 111.859H486.644C489.824 111.859 492.554 111.469 494.834 110.689C497.174 109.909 499.094 108.769 500.594 107.269C502.154 105.769 503.294 103.879 504.014 101.599C504.794 99.3189 505.184 96.6189 505.184 93.4989C505.184 87.2589 503.654 82.6689 500.594 79.7289C497.534 76.7289 492.884 75.2289 486.644 75.2289H478.004V111.859ZM553.526 126.259C548.606 126.259 544.316 125.329 540.656 123.469C536.996 121.609 534.146 118.939 532.106 115.459C530.066 111.979 529.046 107.869 529.046 103.129C529.046 99.5289 529.616 96.3189 530.756 93.4989C531.896 90.6189 533.546 88.1889 535.706 86.2089C537.866 84.1689 540.446 82.6389 543.446 81.6189C546.446 80.5389 549.806 79.9989 553.526 79.9989C558.446 79.9989 562.736 80.9289 566.396 82.7889C570.056 84.6489 572.876 87.3189 574.856 90.7989C576.896 94.2189 577.916 98.3289 577.916 103.129C577.916 106.669 577.346 109.879 576.206 112.759C575.066 115.639 573.416 118.099 571.256 120.139C569.156 122.119 566.576 123.649 563.516 124.729C560.516 125.749 557.186 126.259 553.526 126.259ZM553.526 114.469C555.146 114.469 556.586 114.079 557.846 113.299C559.106 112.459 560.066 111.229 560.726 109.609C561.446 107.929 561.806 105.769 561.806 103.129C561.806 99.1089 561.026 96.2289 559.466 94.4889C557.906 92.6889 555.926 91.7889 553.526 91.7889C551.906 91.7889 550.466 92.1789 549.206 92.9589C547.946 93.7389 546.956 94.9689 546.236 96.6489C545.516 98.2689 545.156 100.429 545.156 103.129C545.156 107.089 545.936 109.969 547.496 111.769C549.056 113.569 551.066 114.469 553.526 114.469ZM608.037 126.259C603.537 126.259 599.817 125.569 596.877 124.189C593.997 122.809 591.837 120.739 590.397 117.979C588.957 115.159 588.237 111.649 588.237 107.449V92.7789H585.177C583.257 92.7789 581.757 92.2689 580.677 91.2489C579.657 90.2289 579.147 88.7589 579.147 86.8389C579.147 84.9189 579.657 83.4789 580.677 82.5189C581.757 81.4989 583.257 80.9889 585.177 80.9889H588.237V75.4089C588.237 72.7689 588.927 70.7589 590.307 69.3789C591.687 67.9989 593.667 67.3089 596.247 67.3089C598.827 67.3089 600.807 67.9989 602.187 69.3789C603.567 70.7589 604.257 72.7689 604.257 75.4089V80.9889H611.637C613.617 80.9889 615.117 81.4989 616.137 82.5189C617.217 83.4789 617.757 84.9189 617.757 86.8389C617.757 88.7589 617.217 90.2289 616.137 91.2489C615.117 92.2689 613.617 92.7789 611.637 92.7789H604.257V106.909C604.257 109.129 604.767 110.779 605.787 111.859C606.867 112.879 608.547 113.389 610.827 113.389C611.667 113.389 612.477 113.299 613.257 113.119C614.037 112.939 614.757 112.849 615.417 112.849C616.377 112.789 617.157 113.089 617.757 113.749C618.357 114.349 618.657 115.759 618.657 117.979C618.657 119.779 618.387 121.309 617.847 122.569C617.307 123.769 616.347 124.639 614.967 125.179C614.127 125.479 612.987 125.719 611.547 125.899C610.107 126.139 608.937 126.259 608.037 126.259ZM640.777 126.259C638.137 126.259 635.437 126.049 632.677 125.629C629.977 125.269 627.517 124.579 625.297 123.559C623.797 122.959 622.717 122.149 622.057 121.129C621.457 120.109 621.157 119.029 621.157 117.889C621.217 116.749 621.547 115.729 622.147 114.829C622.807 113.869 623.647 113.209 624.667 112.849C625.747 112.429 626.947 112.459 628.267 112.939C630.787 113.839 633.037 114.499 635.017 114.919C637.057 115.279 639.007 115.459 640.867 115.459C643.087 115.459 644.677 115.159 645.637 114.559C646.597 113.899 647.077 113.059 647.077 112.039C647.077 111.139 646.747 110.449 646.087 109.969C645.487 109.489 644.617 109.159 643.477 108.979L633.487 107.359C629.767 106.699 626.887 105.349 624.847 103.309C622.807 101.209 621.787 98.4789 621.787 95.1189C621.787 91.9989 622.657 89.3289 624.397 87.1089C626.197 84.8289 628.627 83.0889 631.687 81.8889C634.807 80.6289 638.377 79.9989 642.397 79.9989C645.097 79.9989 647.557 80.2089 649.777 80.6289C651.997 80.9889 654.157 81.6789 656.257 82.6989C657.577 83.2389 658.507 84.0189 659.047 85.0389C659.587 86.0589 659.797 87.1389 659.677 88.2789C659.557 89.3589 659.167 90.3789 658.507 91.3389C657.907 92.2389 657.067 92.8689 655.987 93.2289C654.907 93.5289 653.647 93.4389 652.207 92.9589C650.227 92.1789 648.457 91.6089 646.897 91.2489C645.397 90.8889 643.987 90.7089 642.667 90.7089C640.207 90.7089 638.467 91.0389 637.447 91.6989C636.427 92.3589 635.917 93.1989 635.917 94.2189C635.917 94.9989 636.187 95.6589 636.727 96.1989C637.267 96.6789 638.107 97.0089 639.247 97.1889L649.237 98.8989C653.077 99.4989 656.017 100.819 658.057 102.859C660.157 104.839 661.207 107.539 661.207 110.959C661.207 115.819 659.347 119.599 655.627 122.299C651.907 124.939 646.957 126.259 640.777 126.259Z" fill="#2042FF"/>
</svg>
